STARTFONT 2.1
FONT -dse-dotmatrixprinter-medium-r-normal--20-140-100-100-c-140-fontspecific-0
SIZE 140 100 100
FONTBOUNDINGBOX 14 20 0 -5
STARTPROPERTIES 20
DEFAULT_CHAR 32
FONTNAME_REGISTRY ""
FOUNDRY "dse"
FAMILY_NAME "dotmatrixprinter"
WEIGHT_NAME "medium"
SLANT "r"
SETWIDTH_NAME "normal"
ADD_STYLE_NAME ""
POINT_SIZE 1
PIXEL_SIZE 20
RESOLUTION_X 100
RESOLUTION_Y 100
FONT_ASCENT 15
FONT_DESCENT 5
AVERAGE_WIDTH 140
SPACING "C"
_XMBDFED_INFO "Edited with xmbdfed 4.5."
CHARSET_REGISTRY "fontspecific"
CHARSET_ENCODING "0"
COPYRIGHT "Copyright (C) 2002 by Darren Stuart Embry"
ENDPROPERTIES
CHARS 95
STARTCHAR char32
ENCODING 32
SWIDTH 56 0
DWIDTH 14 0
BBX 11 19 0 -5
BITMAP
0000
0000
0000
0000
0000
0000
0000
0000
0000
0000
0000
0000
0000
0000
0000
0000
0000
0000
0000
ENDCHAR
STARTCHAR char33
ENCODING 33
SWIDTH 56 0
DWIDTH 14 0
BBX 11 19 0 -5
BITMAP
0400
0E00
0400
0E00
0400
0E00
0400
0E00
0400
0000
0000
0000
0400
0E00
0400
0000
0000
0000
0000
ENDCHAR
STARTCHAR char34
ENCODING 34
SWIDTH 56 0
DWIDTH 14 0
BBX 11 19 0 -5
BITMAP
1100
3B80
1100
3B80
1100
3B80
1100
0000
0000
0000
0000
0000
0000
0000
0000
0000
0000
0000
0000
ENDCHAR
STARTCHAR char35
ENCODING 35
SWIDTH 56 0
DWIDTH 14 0
BBX 11 19 0 -5
BITMAP
1100
3B80
1100
3B80
5540
FFE0
5540
3B80
5540
FFE0
5540
3B80
1100
3B80
1100
0000
0000
0000
0000
ENDCHAR
STARTCHAR char36
ENCODING 36
SWIDTH 56 0
DWIDTH 14 0
BBX 11 19 0 -5
BITMAP
0400
0E00
2E80
7FC0
6E80
EE00
6E80
7FC0
2EC0
0EE0
2EC0
7FC0
2E80
0E00
0400
0000
0000
0000
0000
ENDCHAR
STARTCHAR char37
ENCODING 37
SWIDTH 56 0
DWIDTH 14 0
BBX 11 19 0 -5
BITMAP
5080
F9C0
5180
FB80
5300
0700
0600
0E00
0C00
1C00
1940
3BE0
3140
73E0
2140
0000
0000
0000
0000
ENDCHAR
STARTCHAR char38
ENCODING 38
SWIDTH 56 0
DWIDTH 14 0
BBX 11 19 0 -5
BITMAP
1400
3E00
3600
7700
3600
3E00
3C40
7CE0
6CC0
EFC0
4580
E380
6B40
7FE0
2A40
0000
0000
0000
0000
ENDCHAR
STARTCHAR char39
ENCODING 39
SWIDTH 56 0
DWIDTH 14 0
BBX 11 19 0 -5
BITMAP
0200
0700
0600
0E00
0C00
1C00
0800
0000
0000
0000
0000
0000
0000
0000
0000
0000
0000
0000
0000
ENDCHAR
STARTCHAR char40
ENCODING 40
SWIDTH 56 0
DWIDTH 14 0
BBX 11 19 0 -5
BITMAP
0200
0700
0600
0E00
0C00
1C00
0800
1C00
0800
1C00
0C00
0E00
0600
0700
0200
0000
0000
0000
0000
ENDCHAR
STARTCHAR char41
ENCODING 41
SWIDTH 56 0
DWIDTH 14 0
BBX 11 19 0 -5
BITMAP
0800
1C00
0C00
0E00
0600
0700
0200
0700
0200
0700
0600
0E00
0C00
1C00
0800
0000
0000
0000
0000
ENDCHAR
STARTCHAR char42
ENCODING 42
SWIDTH 56 0
DWIDTH 14 0
BBX 11 19 0 -5
BITMAP
0000
0000
1100
3B80
1B00
1F00
5F40
FFE0
5F40
1F00
1B00
3B80
1100
0000
0000
0000
0000
0000
0000
ENDCHAR
STARTCHAR char43
ENCODING 43
SWIDTH 56 0
DWIDTH 14 0
BBX 11 19 0 -5
BITMAP
0000
0000
0400
0E00
0400
0E00
5540
FFE0
5540
0E00
0400
0E00
0400
0000
0000
0000
0000
0000
0000
ENDCHAR
STARTCHAR char44
ENCODING 44
SWIDTH 56 0
DWIDTH 14 0
BBX 11 19 0 -5
BITMAP
0000
0000
0000
0000
0000
0000
0000
0000
0000
0000
0A00
1F00
0A00
1F00
0E00
0E00
0C00
1C00
0800
ENDCHAR
STARTCHAR char45
ENCODING 45
SWIDTH 56 0
DWIDTH 14 0
BBX 11 19 0 -5
BITMAP
0000
0000
0000
0000
0000
0000
5540
FFE0
5540
0000
0000
0000
0000
0000
0000
0000
0000
0000
0000
ENDCHAR
STARTCHAR char46
ENCODING 46
SWIDTH 56 0
DWIDTH 14 0
BBX 11 19 0 -5
BITMAP
0000
0000
0000
0000
0000
0000
0000
0000
0000
0000
0A00
1F00
0A00
1F00
0A00
0000
0000
0000
0000
ENDCHAR
STARTCHAR char47
ENCODING 47
SWIDTH 56 0
DWIDTH 14 0
BBX 11 19 0 -5
BITMAP
0080
01C0
0180
0380
0300
0700
0600
0E00
0C00
1C00
1800
3800
3000
7000
2000
0000
0000
0000
0000
ENDCHAR
STARTCHAR char48
ENCODING 48
SWIDTH 56 0
DWIDTH 14 0
BBX 11 19 0 -5
BITMAP
0A00
1F00
2A80
71C0
62C0
E7E0
4640
EEE0
4C40
FCE0
68C0
71C0
2A80
1F00
0A00
0000
0000
0000
0000
ENDCHAR
STARTCHAR char49
ENCODING 49
SWIDTH 56 0
DWIDTH 14 0
BBX 11 19 0 -5
BITMAP
0400
0E00
1400
3E00
1400
0E00
0400
0E00
0400
0E00
0400
0E00
1500
3F80
1500
0000
0000
0000
0000
ENDCHAR
STARTCHAR char50
ENCODING 50
SWIDTH 56 0
DWIDTH 14 0
BBX 11 19 0 -5
BITMAP
2A80
7FC0
6AC0
E0E0
4040
00E0
0AC0
1FC0
2A80
7000
6000
E000
5540
FFE0
5540
0000
0000
0000
0000
ENDCHAR
STARTCHAR char51
ENCODING 51
SWIDTH 56 0
DWIDTH 14 0
BBX 11 19 0 -5
BITMAP
2A80
7FC0
6AC0
E0E0
4040
00E0
0AC0
1FC0
0AC0
00E0
4040
E0E0
6AC0
7FC0
2A80
0000
0000
0000
0000
ENDCHAR
STARTCHAR char52
ENCODING 52
SWIDTH 56 0
DWIDTH 14 0
BBX 11 19 0 -5
BITMAP
0400
0E00
0C00
1C00
1900
3B80
3100
7380
7540
FFE0
5540
0380
0100
0380
0100
0000
0000
0000
0000
ENDCHAR
STARTCHAR char53
ENCODING 53
SWIDTH 56 0
DWIDTH 14 0
BBX 11 19 0 -5
BITMAP
5540
FFE0
5540
E000
5500
FF80
5540
00E0
0040
00E0
4040
E0E0
6AC0
7FC0
2A80
0000
0000
0000
0000
ENDCHAR
STARTCHAR char54
ENCODING 54
SWIDTH 56 0
DWIDTH 14 0
BBX 11 19 0 -5
BITMAP
2A80
7FC0
6AC0
E0E0
4040
E000
4A80
FFC0
4AC0
E0E0
4040
E0E0
6AC0
7FC0
2A80
0000
0000
0000
0000
ENDCHAR
STARTCHAR char55
ENCODING 55
SWIDTH 56 0
DWIDTH 14 0
BBX 11 19 0 -5
BITMAP
5540
FFE0
55C0
01C0
0180
0380
0300
0700
0600
0E00
0C00
1C00
1800
3800
1000
0000
0000
0000
0000
ENDCHAR
STARTCHAR char56
ENCODING 56
SWIDTH 56 0
DWIDTH 14 0
BBX 11 19 0 -5
BITMAP
2A80
7FC0
6AC0
E0E0
4040
E0E0
6AC0
7FC0
6AC0
E0E0
4040
E0E0
6AC0
7FC0
2A80
0000
0000
0000
0000
ENDCHAR
STARTCHAR char57
ENCODING 57
SWIDTH 56 0
DWIDTH 14 0
BBX 11 19 0 -5
BITMAP
2A80
7FC0
6AC0
E0E0
4040
E0E0
6A40
7FE0
2A40
00E0
4040
E0E0
6AC0
7FC0
2A80
0000
0000
0000
0000
ENDCHAR
STARTCHAR char58
ENCODING 58
SWIDTH 56 0
DWIDTH 14 0
BBX 11 19 0 -5
BITMAP
0000
0000
0A00
1F00
0A00
1F00
0A00
0000
0000
0000
0A00
1F00
0A00
1F00
0A00
0000
0000
0000
0000
ENDCHAR
STARTCHAR char59
ENCODING 59
SWIDTH 56 0
DWIDTH 14 0
BBX 11 19 0 -5
BITMAP
0000
0000
0A00
1F00
0A00
1F00
0A00
0000
0000
0000
0A00
1F00
0A00
1F00
0E00
0E00
0C00
1C00
0800
ENDCHAR
STARTCHAR char60
ENCODING 60
SWIDTH 56 0
DWIDTH 14 0
BBX 11 19 0 -5
BITMAP
0080
01C0
0280
0700
0A00
1C00
2800
7000
2800
1C00
0A00
0700
0280
01C0
0080
0000
0000
0000
0000
ENDCHAR
STARTCHAR char61
ENCODING 61
SWIDTH 56 0
DWIDTH 14 0
BBX 11 19 0 -5
BITMAP
0000
0000
0000
0000
5540
FFE0
5540
0000
5540
FFE0
5540
0000
0000
0000
0000
0000
0000
0000
0000
ENDCHAR
STARTCHAR char62
ENCODING 62
SWIDTH 56 0
DWIDTH 14 0
BBX 11 19 0 -5
BITMAP
2000
7000
2800
1C00
0A00
0700
0280
01C0
0280
0700
0A00
1C00
2800
7000
2000
0000
0000
0000
0000
ENDCHAR
STARTCHAR char63
ENCODING 63
SWIDTH 56 0
DWIDTH 14 0
BBX 11 19 0 -5
BITMAP
2A80
7FC0
6AC0
E0E0
4040
00E0
02C0
07C0
0680
0E00
0400
0000
0400
0E00
0400
0000
0000
0000
0000
ENDCHAR
STARTCHAR char64
ENCODING 64
SWIDTH 56 0
DWIDTH 14 0
BBX 11 19 0 -5
BITMAP
2A80
7FC0
6AC0
E0E0
4540
EFE0
4D40
FCE0
4D40
EFE0
4540
E000
6A80
7FC0
2A80
0000
0000
0000
0000
ENDCHAR
STARTCHAR char65
ENCODING 65
SWIDTH 56 0
DWIDTH 14 0
BBX 11 19 0 -5
BITMAP
0A00
1F00
1B00
3B80
3180
71C0
60C0
E0E0
5540
FFE0
5540
E0E0
4040
E0E0
4040
0000
0000
0000
0000
ENDCHAR
STARTCHAR char66
ENCODING 66
SWIDTH 56 0
DWIDTH 14 0
BBX 11 19 0 -5
BITMAP
5500
FF80
7540
70E0
2040
70E0
2AC0
7FC0
2AC0
70E0
2040
70E0
7540
FF80
5500
0000
0000
0000
0000
ENDCHAR
STARTCHAR char67
ENCODING 67
SWIDTH 56 0
DWIDTH 14 0
BBX 11 19 0 -5
BITMAP
2A80
7FC0
6AC0
E0E0
4040
E000
4000
E000
4000
E000
4040
E0E0
6AC0
7FC0
2A80
0000
0000
0000
0000
ENDCHAR
STARTCHAR char68
ENCODING 68
SWIDTH 56 0
DWIDTH 14 0
BBX 11 19 0 -5
BITMAP
5500
FF80
7580
71C0
20C0
70E0
2040
70E0
2040
70E0
20C0
71C0
7580
FF80
5500
0000
0000
0000
0000
ENDCHAR
STARTCHAR char69
ENCODING 69
SWIDTH 56 0
DWIDTH 14 0
BBX 11 19 0 -5
BITMAP
5540
FFE0
5540
E000
4000
E000
5500
FF80
5500
E000
4000
E000
5540
FFE0
5540
0000
0000
0000
0000
ENDCHAR
STARTCHAR char70
ENCODING 70
SWIDTH 56 0
DWIDTH 14 0
BBX 11 19 0 -5
BITMAP
5540
FFE0
5540
E000
4000
E000
5500
FF80
5500
E000
4000
E000
4000
E000
4000
0000
0000
0000
0000
ENDCHAR
STARTCHAR char71
ENCODING 71
SWIDTH 56 0
DWIDTH 14 0
BBX 11 19 0 -5
BITMAP
2A80
7FC0
6AC0
E0E0
4040
E000
4140
E3E0
4140
E0E0
4040
E0E0
6AC0
7FC0
2A80
0000
0000
0000
0000
ENDCHAR
STARTCHAR char72
ENCODING 72
SWIDTH 56 0
DWIDTH 14 0
BBX 11 19 0 -5
BITMAP
4040
E0E0
4040
E0E0
4040
E0E0
5540
FFE0
5540
E0E0
4040
E0E0
4040
E0E0
4040
0000
0000
0000
0000
ENDCHAR
STARTCHAR char73
ENCODING 73
SWIDTH 56 0
DWIDTH 14 0
BBX 11 19 0 -5
BITMAP
1500
3F80
1500
0E00
0400
0E00
0400
0E00
0400
0E00
0400
0E00
1500
3F80
1500
0000
0000
0000
0000
ENDCHAR
STARTCHAR char74
ENCODING 74
SWIDTH 56 0
DWIDTH 14 0
BBX 11 19 0 -5
BITMAP
0040
00E0
0040
00E0
0040
00E0
0040
00E0
0040
00E0
4040
E0E0
6AC0
7FC0
2A80
0000
0000
0000
0000
ENDCHAR
STARTCHAR char75
ENCODING 75
SWIDTH 56 0
DWIDTH 14 0
BBX 11 19 0 -5
BITMAP
4040
E0E0
4140
E380
4500
EE00
5400
F800
5400
EE00
4500
E380
4140
E0E0
4040
0000
0000
0000
0000
ENDCHAR
STARTCHAR char76
ENCODING 76
SWIDTH 56 0
DWIDTH 14 0
BBX 11 19 0 -5
BITMAP
4000
E000
4000
E000
4000
E000
4000
E000
4000
E000
4000
E000
5540
FFE0
5540
0000
0000
0000
0000
ENDCHAR
STARTCHAR char77
ENCODING 77
SWIDTH 56 0
DWIDTH 14 0
BBX 11 19 0 -5
BITMAP
4040
E0E0
5140
FBE0
5F40
FFE0
4E40
EEE0
4440
E0E0
4040
E0E0
4040
E0E0
4040
0000
0000
0000
0000
ENDCHAR
STARTCHAR char78
ENCODING 78
SWIDTH 56 0
DWIDTH 14 0
BBX 11 19 0 -5
BITMAP
4040
E0E0
5040
F8E0
5840
FCE0
4C40
EEE0
4640
E7E0
4340
E3E0
4140
E0E0
4040
0000
0000
0000
0000
ENDCHAR
STARTCHAR char79
ENCODING 79
SWIDTH 56 0
DWIDTH 14 0
BBX 11 19 0 -5
BITMAP
2A80
7FC0
6AC0
E0E0
4040
E0E0
4040
E0E0
4040
E0E0
4040
E0E0
6AC0
7FC0
2A80
0000
0000
0000
0000
ENDCHAR
STARTCHAR char80
ENCODING 80
SWIDTH 56 0
DWIDTH 14 0
BBX 11 19 0 -5
BITMAP
5500
FF80
5540
E0E0
4040
E0E0
5540
FF80
5500
E000
4000
E000
4000
E000
4000
0000
0000
0000
0000
ENDCHAR
STARTCHAR char81
ENCODING 81
SWIDTH 56 0
DWIDTH 14 0
BBX 11 19 0 -5
BITMAP
2A80
7FC0
6AC0
E0E0
4040
E0E0
4040
E0E0
4240
E7E0
4280
E1C0
6AC0
7FE0
2A40
0000
0000
0000
0000
ENDCHAR
STARTCHAR char82
ENCODING 82
SWIDTH 56 0
DWIDTH 14 0
BBX 11 19 0 -5
BITMAP
5500
FF80
5540
E0E0
4040
E0E0
5540
FF80
5500
E380
4180
E1C0
40C0
E0E0
4040
0000
0000
0000
0000
ENDCHAR
STARTCHAR char83
ENCODING 83
SWIDTH 56 0
DWIDTH 14 0
BBX 11 19 0 -5
BITMAP
2A80
7FC0
6AC0
E0E0
4040
E000
6A80
7FC0
2AC0
00E0
4040
E0E0
6AC0
7FC0
2A80
0000
0000
0000
0000
ENDCHAR
STARTCHAR char84
ENCODING 84
SWIDTH 56 0
DWIDTH 14 0
BBX 11 19 0 -5
BITMAP
5540
FFE0
5540
0E00
0400
0E00
0400
0E00
0400
0E00
0400
0E00
0400
0E00
0400
0000
0000
0000
0000
ENDCHAR
STARTCHAR char85
ENCODING 85
SWIDTH 56 0
DWIDTH 14 0
BBX 11 19 0 -5
BITMAP
4040
E0E0
4040
E0E0
4040
E0E0
4040
E0E0
4040
E0E0
4040
E0E0
6AC0
7FC0
2A80
0000
0000
0000
0000
ENDCHAR
STARTCHAR char86
ENCODING 86
SWIDTH 56 0
DWIDTH 14 0
BBX 11 19 0 -5
BITMAP
4040
E0E0
4040
E0E0
4040
E0E0
60C0
71C0
3180
3B80
1B00
1F00
0E00
0E00
0400
0000
0000
0000
0000
ENDCHAR
STARTCHAR char87
ENCODING 87
SWIDTH 56 0
DWIDTH 14 0
BBX 11 19 0 -5
BITMAP
4040
E0E0
4040
E0E0
4040
E0E0
4440
EEE0
4E40
FFE0
5B40
FBE0
71C0
71C0
2080
0000
0000
0000
0000
ENDCHAR
STARTCHAR char88
ENCODING 88
SWIDTH 56 0
DWIDTH 14 0
BBX 11 19 0 -5
BITMAP
4040
E0E0
60C0
71C0
3180
3B80
1500
0E00
1500
3B80
3180
71C0
60C0
E0E0
4040
0000
0000
0000
0000
ENDCHAR
STARTCHAR char89
ENCODING 89
SWIDTH 56 0
DWIDTH 14 0
BBX 11 19 0 -5
BITMAP
4040
E0E0
60C0
71C0
3180
3B80
1500
0E00
0400
0E00
0400
0E00
0400
0E00
0400
0000
0000
0000
0000
ENDCHAR
STARTCHAR char90
ENCODING 90
SWIDTH 56 0
DWIDTH 14 0
BBX 11 19 0 -5
BITMAP
5540
FFE0
55C0
01C0
0180
0380
0500
0E00
1400
3800
3000
7000
7540
FFE0
5540
0000
0000
0000
0000
ENDCHAR
STARTCHAR char91
ENCODING 91
SWIDTH 56 0
DWIDTH 14 0
BBX 11 19 0 -5
BITMAP
1500
3F80
1500
3800
1000
3800
1000
3800
1000
3800
1000
3800
1500
3F80
1500
0000
0000
0000
0000
ENDCHAR
STARTCHAR char92
ENCODING 92
SWIDTH 56 0
DWIDTH 14 0
BBX 11 19 0 -5
BITMAP
2000
7000
3000
3800
1800
1C00
0C00
0E00
0600
0700
0300
0380
0180
01C0
0080
0000
0000
0000
0000
ENDCHAR
STARTCHAR char93
ENCODING 93
SWIDTH 56 0
DWIDTH 14 0
BBX 11 19 0 -5
BITMAP
1500
3F80
1500
0380
0100
0380
0100
0380
0100
0380
0100
0380
1500
3F80
1500
0000
0000
0000
0000
ENDCHAR
STARTCHAR char94
ENCODING 94
SWIDTH 56 0
DWIDTH 14 0
BBX 11 19 0 -5
BITMAP
0400
0E00
1500
3B80
5140
E0E0
4040
0000
0000
0000
0000
0000
0000
0000
0000
0000
0000
0000
0000
ENDCHAR
STARTCHAR char95
ENCODING 95
SWIDTH 56 0
DWIDTH 14 0
BBX 11 19 0 -5
BITMAP
0000
0000
0000
0000
0000
0000
0000
0000
0000
0000
0000
0000
5540
FFE0
5540
0000
0000
0000
0000
ENDCHAR
STARTCHAR char96
ENCODING 96
SWIDTH 56 0
DWIDTH 14 0
BBX 11 19 0 -5
BITMAP
1000
3800
1400
0E00
0500
0380
0100
0000
0000
0000
0000
0000
0000
0000
0000
0000
0000
0000
0000
ENDCHAR
STARTCHAR char97
ENCODING 97
SWIDTH 56 0
DWIDTH 14 0
BBX 11 19 0 -5
BITMAP
0000
0000
0000
0000
1500
3F80
1580
01C0
2A80
7FC0
6A80
E1C0
6AC0
7FE0
2A40
0000
0000
0000
0000
ENDCHAR
STARTCHAR char98
ENCODING 98
SWIDTH 56 0
DWIDTH 14 0
BBX 11 19 0 -5
BITMAP
4000
E000
4000
E000
5500
FF80
5540
E0E0
4040
E0E0
4040
E0E0
5540
FF80
5500
0000
0000
0000
0000
ENDCHAR
STARTCHAR char99
ENCODING 99
SWIDTH 56 0
DWIDTH 14 0
BBX 11 19 0 -5
BITMAP
0000
0000
0000
0000
2A80
7FC0
6AC0
E0E0
4040
E000
4040
E0E0
6AC0
7FC0
2A80
0000
0000
0000
0000
ENDCHAR
STARTCHAR char100
ENCODING 100
SWIDTH 56 0
DWIDTH 14 0
BBX 11 19 0 -5
BITMAP
0040
00E0
0040
00E0
1540
3FE0
5540
E0E0
4040
E0E0
4040
E0E0
5540
3FE0
1540
0000
0000
0000
0000
ENDCHAR
STARTCHAR char101
ENCODING 101
SWIDTH 56 0
DWIDTH 14 0
BBX 11 19 0 -5
BITMAP
0000
0000
0000
0000
2A80
7FC0
6AC0
E0E0
5540
FFE0
5540
E000
6A80
7FC0
2A80
0000
0000
0000
0000
ENDCHAR
STARTCHAR char102
ENCODING 102
SWIDTH 56 0
DWIDTH 14 0
BBX 11 19 0 -5
BITMAP
0280
07C0
0680
0E00
1500
3F80
1500
0E00
0400
0E00
0400
0E00
0400
0E00
0400
0000
0000
0000
0000
ENDCHAR
STARTCHAR char103
ENCODING 103
SWIDTH 56 0
DWIDTH 14 0
BBX 11 19 0 -5
BITMAP
0000
0000
0000
0000
1540
3FE0
5540
E0E0
4040
E0E0
4040
E0E0
5540
3FE0
1540
00E0
2AC0
7FC0
2A80
ENDCHAR
STARTCHAR char104
ENCODING 104
SWIDTH 56 0
DWIDTH 14 0
BBX 11 19 0 -5
BITMAP
4000
E000
4000
E000
5500
FF80
5540
E0E0
4040
E0E0
4040
E0E0
4040
E0E0
4040
0000
0000
0000
0000
ENDCHAR
STARTCHAR char105
ENCODING 105
SWIDTH 56 0
DWIDTH 14 0
BBX 11 19 0 -5
BITMAP
0400
0E00
0400
0000
1400
3E00
1400
0E00
0400
0E00
0400
0E00
1500
3F80
1500
0000
0000
0000
0000
ENDCHAR
STARTCHAR char106
ENCODING 106
SWIDTH 56 0
DWIDTH 14 0
BBX 11 19 0 -5
BITMAP
0100
0380
0100
0000
0500
0F80
0500
0380
0100
0380
0100
0380
0100
0380
4100
E380
6B00
7F00
2A00
ENDCHAR
STARTCHAR char107
ENCODING 107
SWIDTH 56 0
DWIDTH 14 0
BBX 11 19 0 -5
BITMAP
4000
E000
4000
E000
4040
E0E0
4140
E380
5500
FE00
5500
E380
4140
E0E0
4040
0000
0000
0000
0000
ENDCHAR
STARTCHAR char108
ENCODING 108
SWIDTH 56 0
DWIDTH 14 0
BBX 11 19 0 -5
BITMAP
1400
3E00
1400
0E00
0400
0E00
0400
0E00
0400
0E00
0400
0E00
1500
3F80
1500
0000
0000
0000
0000
ENDCHAR
STARTCHAR char109
ENCODING 109
SWIDTH 56 0
DWIDTH 14 0
BBX 11 19 0 -5
BITMAP
0000
0000
0000
0000
2A80
7FC0
6EC0
EEE0
4440
EEE0
4440
EEE0
4440
EEE0
4440
0000
0000
0000
0000
ENDCHAR
STARTCHAR char110
ENCODING 110
SWIDTH 56 0
DWIDTH 14 0
BBX 11 19 0 -5
BITMAP
0000
0000
0000
0000
4A80
FFC0
6AC0
70E0
2040
70E0
2040
70E0
2040
70E0
2040
0000
0000
0000
0000
ENDCHAR
STARTCHAR char111
ENCODING 111
SWIDTH 56 0
DWIDTH 14 0
BBX 11 19 0 -5
BITMAP
0000
0000
0000
0000
2A80
7FC0
6AC0
E0E0
4040
E0E0
4040
E0E0
6AC0
7FC0
2A80
0000
0000
0000
0000
ENDCHAR
STARTCHAR char112
ENCODING 112
SWIDTH 56 0
DWIDTH 14 0
BBX 11 19 0 -5
BITMAP
0000
0000
0000
0000
5500
FF80
5540
E0E0
4040
E0E0
4040
E0E0
5540
FF80
5500
E000
4000
E000
4000
ENDCHAR
STARTCHAR char113
ENCODING 113
SWIDTH 56 0
DWIDTH 14 0
BBX 11 19 0 -5
BITMAP
0000
0000
0000
0000
1540
3FE0
5540
E0E0
4040
E0E0
4040
E0E0
5540
3FE0
1540
00E0
0040
00E0
0040
ENDCHAR
STARTCHAR char114
ENCODING 114
SWIDTH 56 0
DWIDTH 14 0
BBX 11 19 0 -5
BITMAP
0000
0000
0000
0000
4A80
FFC0
6AC0
70E0
2040
7000
2000
7000
2000
7000
2000
0000
0000
0000
0000
ENDCHAR
STARTCHAR char115
ENCODING 115
SWIDTH 56 0
DWIDTH 14 0
BBX 11 19 0 -5
BITMAP
0000
0000
0000
0000
2A80
7FC0
6A80
E000
6A80
7FC0
2AC0
00E0
2AC0
7FC0
2A80
0000
0000
0000
0000
ENDCHAR
STARTCHAR char116
ENCODING 116
SWIDTH 56 0
DWIDTH 14 0
BBX 11 19 0 -5
BITMAP
1000
3800
1000
3800
5500
FF80
5500
3800
1000
3800
1040
38E0
1AC0
1FC0
0A80
0000
0000
0000
0000
ENDCHAR
STARTCHAR char117
ENCODING 117
SWIDTH 56 0
DWIDTH 14 0
BBX 11 19 0 -5
BITMAP
0000
0000
0000
0000
4080
E1C0
4080
E1C0
4080
E1C0
4080
E1C0
6AC0
7FE0
2A40
0000
0000
0000
0000
ENDCHAR
STARTCHAR char118
ENCODING 118
SWIDTH 56 0
DWIDTH 14 0
BBX 11 19 0 -5
BITMAP
0000
0000
0000
0000
4040
E0E0
60C0
71C0
3180
3B80
1B00
1F00
0E00
0E00
0400
0000
0000
0000
0000
ENDCHAR
STARTCHAR char119
ENCODING 119
SWIDTH 56 0
DWIDTH 14 0
BBX 11 19 0 -5
BITMAP
0000
0000
0000
0000
4040
E0E0
4040
E0E0
4440
EEE0
4E40
FFE0
6AC0
71C0
2080
0000
0000
0000
0000
ENDCHAR
STARTCHAR char120
ENCODING 120
SWIDTH 56 0
DWIDTH 14 0
BBX 11 19 0 -5
BITMAP
0000
0000
0000
0000
4040
E0E0
5140
3B80
1500
0E00
1500
3B80
5140
E0E0
4040
0000
0000
0000
0000
ENDCHAR
STARTCHAR char121
ENCODING 121
SWIDTH 56 0
DWIDTH 14 0
BBX 11 19 0 -5
BITMAP
0000
0000
0000
0000
4040
E0E0
4040
E0E0
4040
E0E0
4040
E0E0
5540
3FE0
1540
00E0
2AC0
7FC0
2A80
ENDCHAR
STARTCHAR char122
ENCODING 122
SWIDTH 56 0
DWIDTH 14 0
BBX 11 19 0 -5
BITMAP
0000
0000
0000
0000
5540
FFE0
5540
0380
0500
0E00
1400
3800
5540
FFE0
5540
0000
0000
0000
0000
ENDCHAR
STARTCHAR char123
ENCODING 123
SWIDTH 56 0
DWIDTH 14 0
BBX 11 19 0 -5
BITMAP
0280
07C0
0680
0E00
0400
0E00
2C00
7C00
2C00
0E00
0400
0E00
0680
07C0
0280
0000
0000
0000
0000
ENDCHAR
STARTCHAR char124
ENCODING 124
SWIDTH 56 0
DWIDTH 14 0
BBX 11 19 0 -5
BITMAP
0400
0E00
0400
0E00
0400
0E00
0400
0E00
0400
0E00
0400
0E00
0400
0E00
0400
0000
0000
0000
0000
ENDCHAR
STARTCHAR char125
ENCODING 125
SWIDTH 56 0
DWIDTH 14 0
BBX 11 19 0 -5
BITMAP
2800
7C00
2C00
0E00
0400
0E00
0680
07C0
0680
0E00
0400
2E00
7C00
2800
0000
0000
0000
0000
0000
ENDCHAR
STARTCHAR char126
ENCODING 126
SWIDTH 56 0
DWIDTH 14 0
BBX 11 19 0 -5
BITMAP
0000
0000
0000
0000
2840
7CE0
6C40
EEE0
46C0
E7C0
4280
0000
0000
0000
0000
0000
0000
0000
0000
ENDCHAR
ENDFONT
